# xmcd CD database file
#
# Track frame offsets:
#	150
#	3883
#	24227
#	44606
#	65014
#
# Disc length: 1181 seconds
#
# Revision: 0
# Processed by: cddbd v1.5.2PL0 Copyright (c) Steve Scherf et al.
# Submitted via: CDex 1.51
#
DISCID=36049b05
DTITLE=FUTON - CARTOON COUNCIL
DYEAR=2006
DGENRE=Jazz
TTITLE0=Congress Dances (intro) 
TTITLE1=Theme from "Chasing the Cartoon" 
TTITLE2=Of Beginning
TTITLE3=Calling You
TTITLE4=Congress Dances (and Progresses)
EXTD=YEAR: 2006
EXTT0=
EXTT1=
EXTT2=
EXTT3=
EXTT4=
PLAYORDER=
